<svg width="240" height="56" viewBox="0 0 240 56" fill="none" xmlns="http://www.w3.org/2000/svg" role="img" aria-label="CentraBudget logo">
  <defs>
    <linearGradient id="cbGrad2" x1="0" y1="0" x2="240" y2="56" gradientUnits="userSpaceOnUse">
      <stop offset="0%" stop-color="#1752F3"/>
      <stop offset="100%" stop-color="#7C3AED"/>
    </linearGradient>
  </defs>
  <rect x="0" y="6" width="44" height="44" rx="12" fill="url(#cbGrad2)"/>
  <g transform="translate(8,8)" fill="#ffffff">
    <path d="M30.6 3.8c-8.1-3.8-17.7 1.9-18.7 10.7-1.1 9.3 7.1 16.8 16.2 15 1.5-.3 2.9-.8 4.1-1.6 1.1-.7 1.4-2.1.7-3.2-.7-1.1-2.1-1.4-3.2-.7-2.9 1.9-6.8 1.7-9.6-.4-3.4-2.6-4.6-7.3-2.7-11.2 1.9-3.9 6.3-5.9 10.5-4.8 1.6.4 3.2-.6 3.6-2.2.4-1.4-.3-2.9-1.5-3.6Z"/>
    <path d="M25.5 6h6.7c3.9 0 6.8 2.3 6.8 5.6 0 2.1-1.1 3.8-3 4.7 2.4.9 3.9 2.8 3.9 5.2 0 3.7-3.1 6.4-7.6 6.4h-6.8c-1.1 0-1.9-.8-1.9-1.9V7.9c0-1.1.8-1.9 1.9-1.9Zm5.9 7.7c1.8 0 3-.9 3-2.3s-1.2-2.3-3-2.3h-3.9v4.6h3.9Zm.4 9.7c2 0 3.3-1 3.3-2.6s-1.3-2.6-3.3-2.6h-4.3v5.2h4.3Z"/>
  </g>
  <g transform="translate(56,0)">
    <text x="0" y="38" font-family="Inter, ui-sans-serif, system-ui, -apple-system, Segoe UI, Roboto" font-size="28" font-weight="800" fill="#0F172A" letter-spacing="0.5">
      Centra<tspan fill="url(#cbGrad2)">Budget</tspan>
    </text>
  </g>
</svg>


